<svg width="243" height="359" viewBox="0 0 243 359" fill="none" xmlns="http://www.w3.org/2000/svg">
<g clip-path="url(#clip0_7_25)">
<path d="M375.5 313.5C375.5 413.453 292.683 494.5 190.5 494.5C88.317 494.5 5.5 413.453 5.5 313.5C5.5 213.547 88.317 132.5 190.5 132.5C292.683 132.5 375.5 213.547 375.5 313.5Z" stroke="#80869B" stroke-opacity="0.12"/>
<path d="M412.5 283C412.5 402.549 311.114 499.5 186 499.5C60.886 499.5 -40.5 402.549 -40.5 283C-40.5 163.451 60.886 66.5 186 66.5C311.114 66.5 412.5 163.451 412.5 283Z" stroke="#80869B" stroke-opacity="0.12"/>
<path d="M343.5 330C343.5 403.711 281.287 463.5 204.5 463.5C127.713 463.5 65.5 403.711 65.5 330C65.5 256.289 127.713 196.5 204.5 196.5C281.287 196.5 343.5 256.289 343.5 330Z" stroke="#80869B" stroke-opacity="0.12"/>
<circle cx="206.5" cy="333.5" r="78" stroke="#80869B" stroke-opacity="0.12"/>
</g>
<defs>
<clipPath id="clip0_7_25">
<rect width="243" height="359" fill="white"/>
</clipPath>
</defs>
</svg>
