<svg width="34" height="21" viewBox="0 0 34 21" fill="none" xmlns="http://www.w3.org/2000/svg">
<path d="M21.3629 2.20929H12.2688V18.4574H21.3629V2.20929Z" fill="#FF5F00"/>
<path d="M12.8463 10.3333C12.8449 8.76851 13.2016 7.22388 13.8893 5.81637C14.577 4.40886 15.5778 3.17537 16.8159 2.20927C15.2827 1.01107 13.4414 0.265933 11.5024 0.0590164C9.56334 -0.1479 7.60489 0.191747 5.85085 1.03915C4.09681 1.88656 2.61795 3.20753 1.58331 4.85107C0.548669 6.4946 0 8.3944 0 10.3333C0 12.2722 0.548669 14.172 1.58331 15.8156C2.61795 17.4591 4.09681 18.7801 5.85085 19.6275C7.60489 20.4749 9.56334 20.8145 11.5024 20.6076C13.4414 20.4007 15.2827 19.6556 16.8159 18.4574C15.5779 17.4913 14.5771 16.2578 13.8893 14.8503C13.2016 13.4427 12.8449 11.8981 12.8463 10.3333Z" fill="#EB001B"/>
<path d="M33.6313 10.3333C33.6314 12.2722 33.0828 14.172 32.0482 15.8155C31.0136 17.4591 29.5348 18.78 27.7808 19.6275C26.0268 20.4749 24.0684 20.8145 22.1294 20.6076C20.1904 20.4007 18.3491 19.6556 16.8159 18.4574C18.0529 17.4903 19.053 16.2566 19.7406 14.8493C20.4282 13.442 20.7855 11.8979 20.7855 10.3333C20.7855 8.76875 20.4282 7.22461 19.7406 5.81732C19.053 4.41004 18.0529 3.17635 16.8159 2.20926C18.3491 1.01107 20.1904 0.265928 22.1294 0.0590137C24.0684 -0.147901 26.0268 0.191762 27.7808 1.03918C29.5348 1.88659 31.0136 3.20756 32.0482 4.8511C33.0828 6.49464 33.6314 8.39443 33.6313 10.3333Z" fill="#F79E1B"/>
<path d="M32.6398 16.7365V16.4038H32.7747V16.336H32.4312V16.4038H32.5661V16.7365H32.6398ZM33.3069 16.7365V16.3354H33.2016L33.0804 16.6113L32.9593 16.3354H32.8539V16.7365H32.9282V16.4339L33.0418 16.6948H33.119L33.2326 16.4333V16.7365H33.3069Z" fill="#F79E1B"/>
</svg>
