<svg width="30" height="28" viewBox="0 0 30 28" fill="none" xmlns="http://www.w3.org/2000/svg">
<path d="M10.7 1H21.5V1.02072V1.04561V1.07076V1.09619V1.12188V1.14784V1.17407V1.20056V1.22732V1.25434V1.28162V1.30917V1.33697V1.36503V1.39336V1.42193V1.45077V1.47986V1.5092V1.5388V1.56865V1.59875V1.62909V1.65969V1.69054V1.72163V1.75297V1.78455V1.81637V1.84844V1.88075V1.9133V1.94608V1.97911V2.01237V2.04587V2.07961V2.11358V2.14778V2.18221V2.21687V2.25177V2.28689V2.32224V2.35782V2.39362V2.42965V2.4659V2.50237V2.53906V2.57598V2.61311V2.65046V2.68803V2.72582V2.76382V2.80203V2.84046V2.87909V2.91794V2.957V2.99627V3.03575V3.07543V3.11532V3.15541V3.19571V3.23621V3.27691V3.31781V3.35891V3.4002V3.4417V3.48339V3.52527V3.56736V3.60963V3.65209V3.69475V3.7376V3.78063V3.82385V3.86726V3.91086V3.95464V3.9986V4.04274V4.08707V4.13158V4.17626V4.22113V4.26617V4.31139V4.35678V4.40235V4.44809V4.494V4.54008V4.58634V4.63276V4.67935V4.72611V4.77303V4.82011V4.86736V4.91478V4.96235V5.01009V5.05798V5.10603V5.15424V5.20261V5.25113V5.2998V5.34863V5.39761V5.44674V5.49603V5.54546V5.59503V5.64476V5.69463V5.74464V5.7948V5.8451V5.89555V5.94613V5.99685V6.04771V6.09871V6.14984V6.20111V6.25252V6.30405V6.35572V6.40752V6.45945V6.51151V6.5637V6.61601V6.66845V6.72101V6.7737V6.82651V6.87944V6.9325V6.98567V7.03896V7.09236V7.14589V7.19953V7.25328V7.30715V7.36112V7.41521V7.46941V7.52372V7.57814V7.63266V7.68729V7.74202V7.79686V7.8518V7.90684V7.96198V8.01722V8.07256V8.128V8.18354V8.23916V8.29489V8.3507V8.40661V8.46261V8.5187V8.57488V8.63115V8.6875V8.74394V8.80046V8.85707V8.91376V8.97053V9.02739V9.08432V9.14133V9.19842V9.25558V9.31282V9.37014V9.42752V9.48498V9.54251V9.60011V9.65778V9.71552V9.77332V9.83119V9.88913V9.94713V10.0052V10.0633V10.1215V10.1797V10.238V10.2964V10.3548V10.4133V10.4718V10.5304V10.589V10.6477V10.7064V10.7652V10.8241V10.8829V10.9419V11.0008V11.0598V11.1189V11.178V11.2371V11.2963V11.3555V11.4148V11.474V11.5334V11.5927V11.6521V11.7115V11.771V11.8305V11.89V11.9495V12.0091V12.0687V12.1283V12.188V12.2476V12.3073V12.367V12.4268V12.4865V12.5463V12.6061V12.6658V12.7257V12.7855V12.8453V12.9052V12.965V13.0249V13.0848V13.1447V13.2045V13.2644V13.3243V13.3842V13.4441V13.504V13.5639V13.6238V13.6837V13.7436V13.8035V13.8634V13.9233V13.9832V14.043V14.1029V14.1627V14.2225V14.2824V14.3422V14.402V14.4617V14.5215V14.5812V14.6409V14.7006V14.7603V14.82V14.8796V14.9392V14.9988V15.0583V15.1178V15.1773V15.2368V15.2962V15.3557V15.415V15.4744V15.5337V15.5929V15.6522V15.7114V15.7705V15.8296V15.8887V15.9477V16.0067V16.0656V16.1245V16.1834V16.2422V16.3009V16.3596V16.4183V16.4769V16.5354V16.5939V16.6524V16.7108V16.7691V16.8273V16.8856V16.9437V17.0018V17.0598V17.1178V17.1757V17.2335V17.2913V17.349V17.4066V17.4642V17.5216V17.5791V17.6364V17.6937V17.7509V17.808V17.865V17.922V17.9789V18.0357V18.0924V18.149V18.2056V18.2621V18.3185V18.3748V18.431V18.4871V18.5431V18.5991V18.6549V18.7107V18.7664V18.8219V18.8774V18.9328V18.9881V19.0433V19.0983V19.1533V19.2082V19.263V19.3177V19.3722V19.4267V19.481V19.5353V19.5894V19.6434V19.6973V19.7511V19.8048V19.8584V19.9119V19.9652V20.0184V20.0715V20.1245V20.1774V20.2301V20.2827V20.3352V20.3876V20.4398V20.4919V20.5439V20.5957V20.6475V20.6991V20.7505V20.8018V20.853V20.9041V20.955V21.0058V21.0564V21.1069V21.1573V21.2075V21.2576V21.3075V21.3573V21.4069V21.4564V21.5057V21.5549V21.604V21.6529V21.7016V21.7502V21.7986V21.8469V21.895V21.943V21.9908V22.0384V22.0859V22.1332V22.1803V22.2273V22.2742V22.3208V22.3673V22.4136V22.4598V22.5058V22.5516V22.5972V22.6427V22.688V22.7331V22.778V22.8228V22.8673V22.9117V22.956V23C21.5 23.8996 21.4395 24.554 21.3451 25.019C21.2486 25.4951 21.131 25.6992 21.0743 25.7692C21.0739 25.7698 21.0734 25.7704 21.073 25.7709C21.0252 25.7659 20.9197 25.7436 20.7406 25.6588C20.3247 25.4618 19.8638 25.1096 19.3254 24.6982C19.2509 24.6412 19.1749 24.5831 19.0973 24.5242C18.805 24.302 18.4842 24.0644 18.1756 23.8822C17.8992 23.7189 17.4736 23.5 17 23.5C16.2493 23.5 15.6377 23.9271 15.2162 24.2812C14.8843 24.5599 14.534 24.9169 14.2104 25.2466C14.1099 25.3491 14.0119 25.4489 13.9179 25.5429C13.0165 26.4443 12.2875 27 11.5 27C10.7528 27 10.1483 26.4906 9.38426 25.5992C9.30693 25.509 9.22546 25.4118 9.14102 25.3111C8.86338 24.98 8.55358 24.6105 8.25298 24.3235C7.86288 23.9512 7.27583 23.5 6.5 23.5C6.03469 23.5 5.60439 23.7129 5.32263 23.8708C5.0054 24.0486 4.66758 24.282 4.35419 24.5025C4.29953 24.541 4.24537 24.5792 4.1917 24.617C3.58154 25.0474 3.03581 25.4324 2.54358 25.6434C2.28498 25.7542 2.12956 25.7756 2.05337 25.7718C2.01665 25.7699 2.00543 25.7688 1.9681 25.7275C1.90366 25.6563 1.7767 25.4589 1.67137 24.9959C1.56775 24.5405 1.5 23.8945 1.5 23V10.1982C1.5 8.21541 1.50106 6.79851 1.60603 5.69476C1.70958 4.60591 1.90717 3.92542 2.2368 3.38751C2.64908 2.71473 3.21473 2.14908 3.88751 1.7368C4.42538 1.40719 5.10599 1.20959 6.19517 1.10603C7.29924 1.00106 8.71658 1 10.7 1Z" fill="#C4C8D5" stroke="#202A50" stroke-width="2"/>
<rect x="6.5" y="8" width="10" height="2" rx="1" fill="#202A50"/>
<rect x="7.5" y="13" width="8" height="2" rx="1" fill="#202A50"/>
<path d="M21.5 1H23.5C26.2614 1 28.5 3.23858 28.5 6V9.5C28.5 10.8807 27.3807 12 26 12H21.5V1Z" stroke="#202A50" stroke-width="2"/>
</svg>
